<svg id="Icons" height="512" viewBox="0 0 60 60" width="512" xmlns="http://www.w3.org/2000/svg"><path d="m59 59h-58a40.337 40.337 0 0 0 10.78-3.22c5.19-2.3 9.23-4.78 18.22-4.78 8.22 0 12.3 2.07 16.9 4.18a42.3 42.3 0 0 0 12.1 3.82z" fill="#ffdf00"/><path d="m55.95 46.88-9.05 8.3c-4.6-2.11-8.68-4.18-16.9-4.18-8.99 0-13.03 2.48-18.22 4.78l-6.01-6.01a5 5 0 0 1 -1.42-4.24l3.32-23.24a4.97 4.97 0 0 1 .43-1.42l9.16 3.82a3.888 3.888 0 0 0 1.54.31h13.06a4 4 0 0 0 3.33-1.78l7.18-10.77a5.469 5.469 0 0 1 .58.5l9.96 9.96a5.039 5.039 0 0 1 1.38 2.6l3.19 16.75a5.025 5.025 0 0 1 -1.53 4.62z" fill="#7f8e94"/><path d="m57.48 42.26-3.19-16.75a5.039 5.039 0 0 0 -1.38-2.6l-9.96-9.96a5.469 5.469 0 0 0 -.58-.5l-1.17 1.75 8.71 8.71a5.039 5.039 0 0 1 1.38 2.6l3.19 16.75a5.025 5.025 0 0 1 -1.53 4.62l-8.05 7.384c.666.3 1.328.607 2 .916l9.05-8.3a5.025 5.025 0 0 0 1.53-4.62z" fill="#545c60"/><path d="m42.37 12.45-7.18 10.77a4 4 0 0 1 -3.33 1.78h-13.06a3.888 3.888 0 0 1 -1.54-.31l-9.16-3.82a4.937 4.937 0 0 1 1.85-2.1l15.2-9.6a4.982 4.982 0 0 1 3.96-.61l11.59 3.09a5.154 5.154 0 0 1 1.67.8z" fill="#9e9e9e"/><path d="m40.7 11.65-11.59-3.09a4.96 4.96 0 0 0 -2.736.07l11.326 3.02a5.154 5.154 0 0 1 1.67.8l-7.18 10.77a4 4 0 0 1 -3.33 1.78h3a4 4 0 0 0 3.33-1.78l7.18-10.77a5.154 5.154 0 0 0 -1.67-.8z" fill="#707070"/><path d="m0 59.076a1 1 0 0 0 1 .924h58a1 1 0 0 0 .152-1.988 39.051 39.051 0 0 1 -10.452-3.122l7.932-7.275a6.066 6.066 0 0 0 1.835-5.542l-3.196-16.754a6.319 6.319 0 0 0 -1.654-3.119c-9.981-9.98-10.218-10.27-10.692-10.585-1.389-.92-.577-.554-13.556-4.024a6 6 0 0 0 -4.753.73l-15.2 9.6a6.051 6.051 0 0 0 -2.736 4.227l-3.321 23.242a6.041 6.041 0 0 0 1.7 5.087l4.961 4.96a38.122 38.122 0 0 1 -9.172 2.575 1 1 0 0 0 -.848 1.064zm25.687-49.062a4 4 0 0 1 3.166-.488c12.651 3.38 11.725 3.11 12.09 3.262l-6.585 9.878a3 3 0 0 1 -2.498 1.334c-14.266 0-13.465.088-14.215-.233l-8.045-3.356c.613-.721-.522.112 16.087-10.397zm-20.087 37.67 8.882-3.411a1.981 1.981 0 0 1 1.2-.073l7.08 1.77a1 1 0 1 0 .484-1.94l-7.08-1.77a3.977 3.977 0 0 0 -2.4.146l-8.422 3.232c2.7-18.918 3.24-22.775 3.372-23.427l8.15 3.4c1.234.527.634.389 14.994.389a4.992 4.992 0 0 0 4.162-2.225l6.536-9.8 9.421 9.421-5.942 2.97a4.981 4.981 0 0 0 -2.505 2.89l-1.81 5.429a3 3 0 0 1 -2.022 1.934l-4.969 1.42a1 1 0 0 0 .269 1.961c.2 0-.172.082 5.243-1.458a5 5 0 0 0 3.376-3.226l1.813-5.434a2.975 2.975 0 0 1 1.5-1.728l6.2-3.1c.186.5-.026-.593 3.375 17.387a4.046 4.046 0 0 1 -1.224 3.7l-8.558 7.85c-5.625-2.591-9.502-3.991-16.725-3.991-8.4 0-12.261 1.983-18 4.583-5.932-5.928-5.97-5.797-6.4-6.899zm24.4 4.316c10.437 0 14.055 3.451 21.02 6h-42.04c6.86-2.511 10.553-6 21.02-6z"/><circle cx="43" cy="45" r="1"/><circle cx="46" cy="49" r="1"/><circle cx="48" cy="45" r="1"/><circle cx="12" cy="29" r="1"/><circle cx="44" cy="20" r="1"/><circle cx="11" cy="32" r="1"/></svg>