<svg id="Capa_1" enable-background="new 0 0 511.974 511.974" height="512" viewBox="0 0 511.974 511.974" width="512" xmlns="http://www.w3.org/2000/svg"><g><g><path d="m482.436 24.919-212.993 280.31-67.436-51.241 139.528-183.626c9.839-12.948 21.615-24.261 34.778-33.41 28.435-19.763 61.759-28.344 93.094-23.971l8.6 1.2c5.095.71 7.541 6.642 4.429 10.738z" fill="#bfbfbf"/><path d="m361.377 93.039c9.839-12.948 21.615-24.261 34.778-33.41 24.19-16.813 51.918-25.526 78.95-25.063l7.33-9.647c3.112-4.096.666-10.027-4.429-10.738l-8.601-1.2c-31.334-4.373-64.659 4.208-93.094 23.971-13.163 9.149-24.939 20.461-34.778 33.41l-139.527 183.626 23.503 17.859z" fill="#e2e2e2"/><path d="m272.288 314.927c2.005-2.639 1.491-6.402-1.147-8.407l-70.833-53.822c-2.638-2.005-6.403-1.491-8.407 1.147l-49.968 65.76c-1.054 1.388-2.659 2.267-4.399 2.356-25.944 1.33-51.149 13.637-68.096 35.94-30.522 40.168-22.702 97.475 17.467 127.997 40.168 30.521 97.474 22.702 127.996-17.467 20.105-26.459 23.561-60.351 12.105-89.128-.776-1.949-.473-4.16.796-5.83zm-92.76 126.625c-15.653 20.6-45.145 24.624-65.745 8.971s-24.624-45.145-8.972-65.744c15.653-20.599 45.145-24.624 65.744-8.971s24.625 45.145 8.973 65.744z" fill="#0055a3"/><path d="m29.494 20.18 209.129 283.205 68.132-50.312-136.996-185.522c-9.66-13.082-21.28-24.555-34.317-33.883-28.161-20.152-61.364-29.189-92.756-25.247l-8.616 1.082c-5.104.641-7.632 6.539-4.576 10.677z" fill="#e2e2e2"/><path d="m437.887 358.795c-16.64-22.534-41.674-35.186-67.597-36.871-1.739-.113-3.331-1.014-4.366-2.416l-49.061-66.439c-1.969-2.666-5.725-3.231-8.391-1.263l-71.564 52.846c-2.666 1.969-3.231 5.726-1.262 8.391l43.679 59.15c1.246 1.687 1.519 3.902.717 5.84-11.85 28.618-8.859 62.554 10.881 89.286 29.968 40.583 87.161 49.188 127.745 19.22 40.582-29.968 49.187-87.161 19.219-127.744zm-42.28 89.307c-21.966 19.459-56.068 14.33-71.336-10.731-11.704-19.21-7.907-44.443 8.93-59.36 21.966-19.459 56.067-14.33 71.335 10.731 11.705 19.21 7.909 44.444-8.929 59.36z" fill="#0473ce"/><g><path d="m437.887 358.795c-16.64-22.534-41.674-35.186-67.597-36.871-1.739-.113-3.331-1.014-4.366-2.416l-49.061-66.439c-1.969-2.666-5.725-3.231-8.391-1.263l-25.324 18.7c2.017-.181 4.077.657 5.368 2.405l49.061 66.438c1.035 1.402 2.627 2.303 4.366 2.416 25.923 1.686 50.957 14.338 67.597 36.871 26.929 36.468 22.694 86.337-7.886 117.823 5.895-2.64 11.604-5.927 17.012-9.92 40.584-29.968 49.189-87.161 19.221-127.744z" fill="#0067c5"/></g><path d="m43.191 38.729c27.77-.636 56.271 8.487 80.912 26.119 13.036 9.328 24.656 20.802 34.317 33.883l126.098 170.763 22.238-16.421-136.997-185.522c-9.66-13.082-21.28-24.556-34.316-33.884-28.162-20.151-61.366-29.188-92.757-25.245l-8.616 1.082c-5.104.641-7.632 6.539-4.576 10.676z" fill="#cecece"/><circle cx="246.242" cy="242.152" fill="#5a5a5a" r="14.999"/></g><g><path d="m317.867 441.274c17.702 29.057 57.264 34.988 82.714 12.443 0 0 0 0 0-.001 19.69-17.444 24.048-46.411 10.361-68.876-17.708-29.065-57.274-34.98-82.714-12.442-19.69 17.444-24.048 46.411-10.361 68.876zm20.308-57.649c18.478-16.37 47.134-12.029 59.958 9.02 9.745 15.995 6.521 37.424-7.499 49.844-18.479 16.369-47.135 12.03-59.958-9.02-9.744-15.995-6.521-37.424 7.499-49.844z"/><path d="m244.415 264.577c12.421 1.011 23.245-8.227 24.252-20.598 1.01-12.393-8.201-23.242-20.597-24.253-12.374-.99-23.245 8.233-24.253 20.598-1.01 12.393 8.202 23.243 20.598 24.253zm-5.647-23.034c.542-6.65 8.887-9.313 13.19-4.246 4.359 5.134.24 12.876-6.325 12.329-4.129-.335-7.202-3.951-6.865-8.083z"/><path d="m311.72 258.731 18.261 24.729c2.461 3.334 7.158 4.04 10.488 1.578 3.332-2.461 4.039-7.156 1.578-10.488-21.479-29.088-18.889-25.626-19.683-26.572l166.043-218.522c1.902-2.503 2.907-5.472 2.907-8.586 0-7.073-5.276-13.143-12.271-14.117-9.433-1.316-15.674-2.389-25.83-2.389-28.234 0-56.307 9.14-81.181 26.429-8.816 6.127-17.088 13.221-24.585 21.083-2.858 2.997-2.746 7.745.252 10.604 2.997 2.856 7.744 2.747 10.604-.252 6.802-7.133 14.302-13.564 22.291-19.117 22.35-15.535 47.461-23.746 72.62-23.746 8.823 0 14.255.918 22.456 2.063l-167.687 220.682c-6.277-8.5-36.846-49.897-43.141-58.422l72.072-94.852c2.506-3.298 1.864-8.003-1.434-10.509-3.298-2.505-8.002-1.864-10.509 1.435l-69.414 91.353-79.766-108.02c-31.314-42.406-82.479-68.591-134.039-62.115l-8.617 1.082c-5.068.637-9.294 3.82-11.306 8.516-2.012 4.694-1.401 9.949 1.633 14.058l164.394 222.624c-.702.609-1.351 1.291-1.926 2.049l-49.546 65.204c-28.885 1.704-55.427 15.835-72.917 38.852-33.052 43.499-24.602 105.451 18.901 138.506 43.41 32.983 105.539 24.483 138.505-18.9 20.984-27.616 25.974-63.306 13.417-95.639l20.035-26.367 18.46 24.999c-4.793 11.862-7.223 24.37-7.223 37.189 0 21.229 6.684 41.501 19.328 58.623 18.557 25.13 48.309 40.133 79.588 40.133 21.234 0 41.514-6.686 58.645-19.335 21.218-15.669 35.075-38.66 39.018-64.74.001-.006.002-.011.002-.017.739-4.896 1.114-9.885 1.114-14.831 0-21.234-6.686-41.514-19.336-58.646-17.172-23.255-43.519-37.748-72.376-39.848l-8.705-11.787c-2.46-3.333-7.157-4.039-10.488-1.578-3.333 2.461-4.039 7.156-1.578 10.488l9.117 12.347c2.366 3.205 5.979 5.189 9.914 5.446 24.74 1.608 47.356 13.943 62.05 33.842 10.731 14.532 16.403 31.73 16.403 49.735 0 4.203-.319 8.444-.948 12.605-.001.007-.002.015-.003.021-3.349 22.114-15.101 41.607-33.093 54.895-14.532 10.729-31.73 16.401-49.735 16.401-26.539 0-51.78-12.727-67.521-34.043-10.725-14.523-16.394-31.714-16.394-49.713 0-11.129 2.156-21.979 6.408-32.248 1.738-4.195 1.313-9.206-1.612-13.166l-42.788-57.944zm-66.68 79.659-23.209 30.544c-2.844 3.742-3.531 8.778-1.793 13.142 10.992 27.612 6.839 58.198-11.108 81.818-27.97 36.81-80.675 44.003-117.487 16.032-36.897-28.036-44.073-80.586-16.033-117.487 14.965-19.695 37.749-31.719 62.503-32.988 3.938-.198 7.581-2.134 9.992-5.309l49.053-64.556c6.401 8.668 25.165 34.078 31.834 43.109-2.648 4.562-2.398 10.445.821 14.802zm-4.838-45.494-21.655-29.324-182.239-246.791 7.313-.919c46.554-5.846 92.318 18.514 120.105 56.144l132.541 179.489z"/><path d="m175.093 369.836c-23.891-18.153-58.098-13.487-76.253 10.406-18.172 23.915-13.512 58.079 10.406 76.253 23.889 18.153 58.098 13.488 76.254-10.406v.001c18.173-23.916 13.511-58.08-10.407-76.254zm-1.537 67.178c-13.151 17.309-37.929 20.689-55.235 7.538-17.315-13.158-20.696-37.919-7.538-55.234 13.157-17.315 37.937-20.683 55.234-7.538 17.316 13.156 20.698 37.918 7.539 55.234z"/></g></g></svg>